<?xml version="1.0" encoding="UTF-8" standalone="no"?>
<!-- Created with Inkscape (http://www.inkscape.org/) -->

<svg
   xmlns:dc="http://purl.org/dc/elements/1.1/"
   xmlns:cc="http://creativecommons.org/ns#"
   xmlns:rdf="http://www.w3.org/1999/02/22-rdf-syntax-ns#"
   xmlns:svg="http://www.w3.org/2000/svg"
   xmlns="http://www.w3.org/2000/svg"
   xmlns:sodipodi="http://sodipodi.sourceforge.net/DTD/sodipodi-0.dtd"
   xmlns:inkscape="http://www.inkscape.org/namespaces/inkscape"
   width="68.977516mm"
   height="70.306297mm"
   viewBox="0 0 68.977516 70.306297"
   version="1.1"
   id="svg8"
   inkscape:version="0.92.4 (5da689c313, 2019-01-14)"
   sodipodi:docname="rpc.svg">
  <defs
     id="defs2" />
  <sodipodi:namedview
     id="base"
     pagecolor="#ffffff"
     bordercolor="#666666"
     borderopacity="1.0"
     inkscape:pageopacity="0.0"
     inkscape:pageshadow="2"
     inkscape:zoom="0.98994949"
     inkscape:cx="180.01534"
     inkscape:cy="101.83928"
     inkscape:document-units="mm"
     inkscape:current-layer="layer1"
     showgrid="false"
     fit-margin-top="0"
     fit-margin-left="0"
     fit-margin-right="0"
     fit-margin-bottom="0"
     inkscape:pagecheckerboard="true"
     inkscape:window-width="1920"
     inkscape:window-height="986"
     inkscape:window-x="-11"
     inkscape:window-y="-11"
     inkscape:window-maximized="1" />
  <metadata
     id="metadata5">
    <rdf:RDF>
      <cc:Work
         rdf:about="">
        <dc:format>image/svg+xml</dc:format>
        <dc:type
           rdf:resource="http://purl.org/dc/dcmitype/StillImage" />
        <dc:title></dc:title>
      </cc:Work>
    </rdf:RDF>
  </metadata>
  <g
     inkscape:label="Calque 1"
     inkscape:groupmode="layer"
     id="layer1"
     transform="translate(-67.394046,-101.61785)">
    <g
       id="g21"
       transform="translate(-3.7417697,-1.6036172)">
      <path
         style="fill:#cc93d8;stroke-width:0.35277778"
         d="m 96.853867,172.73402 c -0.798862,-0.74205 -9.144358,-10.18217 -11.881212,-13.43959 -0.67711,-0.8059 -4.137652,-4.78336 -7.690093,-8.83879 -3.913501,-4.46762 -6.331569,-7.50093 -6.135677,-7.69683 0.292343,-0.29234 1.793726,-0.0487 7.295769,1.18396 3.902569,0.87431 10.719936,1.87293 10.983926,1.60894 0.240928,-0.24093 -1.385171,-4.81227 -4.094699,-11.51114 -1.839549,-4.54799 -2.098362,-5.66836 -1.309422,-5.66836 0.25549,0 4.105177,1.36468 8.55486,3.03263 12.504681,4.68732 20.342971,7.5507 20.669491,7.5507 0.16347,0 0.29723,-0.16802 0.29723,-0.37339 0,-0.20537 -1.50812,-4.64109 -3.35139,-9.85716 -1.84326,-5.21608 -3.34748,-9.69149 -3.34271,-9.94536 0.008,-0.44737 9.97359,-13.94655 11.2133,-15.18993 0.5859,-0.58763 0.70106,-0.5538 2.40135,0.70556 2.49421,1.84737 4.75208,3.4804 7.86682,5.68974 1.47132,1.04363 3.36583,2.45645 4.21002,3.13959 0.8442,0.68314 2.73066,2.02267 4.19214,2.97674 1.76051,1.14927 2.53892,1.85298 2.30664,2.08527 -0.22058,0.22057 -3.90138,0.30996 -9.92508,0.24102 -7.47677,-0.0856 -9.5744,-0.0131 -9.57417,0.33086 1.7e-4,0.24223 1.00946,2.22661 2.24289,4.40972 4.99406,8.83931 7.9437,13.99828 9.6315,16.84568 3.2639,5.50633 8.06697,13.92394 8.47248,14.84845 0.45604,1.03969 1.08464,0.1024 -7.71599,11.50511 -2.85158,3.69471 -5.44425,6.81726 -5.76149,6.93899 -0.31724,0.12173 -6.90496,0.22134 -14.63938,0.22134 H 97.708385 Z"
         id="path35"
         inkscape:connector-curvature="0" />
      <path
         style="fill:#b38ccf;stroke-width:0.35277778"
         d="m 97.894245,172.9986 c 0.111683,-0.29104 0.372058,-0.52917 0.57861,-0.52917 0.411799,0 4.683515,-1.60419 5.572005,-2.09249 0.69497,-0.38195 12.22062,-4.96306 12.4866,-4.96306 0.1074,0 0.86823,-0.30659 1.69073,-0.6813 0.8225,-0.37472 3.08296,-1.34448 5.02324,-2.15502 1.94028,-0.81055 4.19375,-1.77396 5.00773,-2.14092 0.81397,-0.36696 1.71575,-0.66721 2.00396,-0.66721 0.28821,0 2.00348,-0.69573 3.81172,-1.54606 1.80823,-0.85034 3.6052,-1.66643 3.99325,-1.81353 0.63135,-0.23934 0.59425,-0.29829 -0.35277,-0.56051 -0.58209,-0.16117 -6.21771,-1.26186 -12.52361,-2.44597 -17.51144,-3.28827 -34.656055,-6.65294 -34.840682,-6.83757 -0.09107,-0.0911 -0.700177,-1.70053 -1.353572,-3.57657 -0.653395,-1.87605 -2.143235,-5.77381 -3.310758,-8.66169 -1.167522,-2.88788 -2.122767,-5.32986 -2.122767,-5.42662 0,-0.50023 1.989997,0.12958 10.728638,3.39549 11.941221,4.46282 18.968811,7.01192 19.331101,7.01192 0.58827,0 0.17782,-1.40905 -3.07224,-10.54699 -1.84326,-5.18256 -3.35139,-9.68275 -3.35139,-10.00043 0,-0.31769 0.16118,-0.67722 0.35819,-0.79898 0.31489,-0.19461 4.91828,-6.10269 6.34459,-8.14276 0.29104,-0.41628 1.39708,-1.91891 2.45787,-3.33918 l 1.9287,-2.5823 0.40546,1.56574 c 0.26211,1.01216 0.3443,3.49897 0.23248,7.03379 l -0.17299,5.46805 2.02173,3.88056 c 1.90994,3.66598 3.48109,6.43169 5.35655,9.42924 0.45264,0.72345 0.82297,1.37535 0.82297,1.44869 0,0.0733 0.76951,1.46579 1.71001,3.09437 3.25846,5.64231 8.44577,14.61438 9.89089,17.10745 1.57115,2.7105 1.73966,3.31609 0.92271,3.31609 -0.29104,0 -0.52916,0.13888 -0.52916,0.30862 0,0.16974 -1.07156,1.66522 -2.38125,3.32328 -1.30969,1.65805 -4.20688,5.4034 -6.4382,8.323 l -4.05694,5.30835 -14.18823,0.0114 c -12.469916,0.01 -14.163643,-0.0527 -13.985175,-0.51774 z"
         id="path33"
         inkscape:connector-curvature="0" />
      <path
         style="fill:#b76ac6;stroke-width:0.35277778"
         d="m 100.13849,172.11902 c 0.67909,-0.37309 1.47056,-0.685 1.75882,-0.69313 0.28826,-0.008 1.32013,-0.40289 2.29306,-0.87724 1.99541,-0.97286 5.25241,-2.32565 8.64811,-3.59198 2.31605,-0.8637 5.24575,-2.04683 10.40695,-4.20273 1.55222,-0.64838 3.69535,-1.52286 4.7625,-1.94329 1.06715,-0.42043 3.52778,-1.44551 5.46805,-2.27796 4.54506,-1.94999 5.28719,-2.17624 4.88819,-1.49024 -0.29747,0.51144 -7.75915,10.26419 -10.55375,13.79423 l -1.43224,1.80914 -13.73721,0.0758 c -13.726604,0.0757 -13.736254,0.0753 -12.50248,-0.60257 z m 37.57083,-16.46888 c -0.38806,-0.0863 -5.22993,-1.02442 -10.75973,-2.08472 -5.52979,-1.0603 -10.76854,-2.07698 -11.64166,-2.25929 -0.87313,-0.18231 -6.58813,-1.29799 -12.7,-2.4793 -6.111875,-1.18129 -11.350624,-2.21748 -11.641666,-2.30263 -0.291042,-0.0851 -0.987101,-1.46573 -1.546799,-3.06798 -0.559698,-1.60225 -1.966365,-5.29443 -3.125927,-8.20484 -1.159562,-2.91042 -2.187049,-5.49011 -2.283305,-5.73264 -0.100894,-0.25422 0.09377,-0.44097 0.459654,-0.44097 0.349066,0 5.485737,1.81667 11.414826,4.03706 11.697347,4.38054 17.684887,6.546 18.100297,6.54616 0.54384,2.2e-4 0.18058,-1.21566 -3.25593,-10.89806 l -3.52052,-9.91908 2.1976,-2.79756 c 1.20868,-1.53866 3.70573,-4.82787 5.54899,-7.30937 l 3.35139,-4.51181 0.17639,7.22286 0.17639,7.22285 1.80359,3.1767 c 0.99197,1.74719 3.63371,6.35094 5.87053,10.23056 2.23681,3.87962 6.07967,10.54635 8.53969,14.81496 2.46002,4.26862 4.62047,7.91193 4.801,8.09625 0.7981,0.81488 -0.0259,1.09201 -1.96481,0.66085 z"
         id="path31"
         inkscape:connector-curvature="0" />
      <path
         style="fill:#9758b5;stroke-width:0.35277778"
         d="m 132.77043,154.471 c -18.34987,-3.49117 -39.829848,-7.68325 -41.270099,-8.05438 -0.927209,-0.23892 -1.176126,-0.60707 -2.077401,-3.07251 -0.807466,-2.20882 -2.985292,-7.77331 -5.410965,-13.82537 -0.09736,-0.24292 0.07731,-0.44097 0.388927,-0.44097 0.311118,0 5.28904,1.7683 11.062048,3.92955 10.5648,3.95517 18.03207,6.63503 18.52207,6.6472 0.56373,0.014 0.20548,-1.58013 -1.28807,-5.73171 -3.74521,-10.41045 -5.15012,-14.53246 -5.15012,-15.11041 0,-0.83336 0.37486,-0.87454 6.10461,-0.67075 l 4.95919,0.17639 2.14102,4.06314 c 1.17755,2.23472 2.60643,4.8541 3.17528,5.82083 6.82362,11.59646 15.3699,26.59539 15.3699,26.97456 0,0.49551 -0.49425,0.44208 -6.52639,-0.70557 z"
         id="path29"
         inkscape:connector-curvature="0" />
      <path
         style="fill:#9926ae;stroke-width:0.35277778"
         d="m 132.77043,154.11732 c -6.22964,-1.18261 -11.73477,-2.25005 -28.9688,-5.61703 -7.007565,-1.36906 -12.822272,-2.48919 -12.921572,-2.48919 -0.0993,0 -0.535013,-0.99219 -0.968249,-2.20486 -0.433237,-1.21268 -1.83021,-4.86214 -3.104385,-8.10993 -1.274175,-3.24778 -2.233638,-5.9881 -2.13214,-6.0896 0.179563,-0.17956 9.393175,3.11324 17.579866,6.28277 4.27046,1.65333 11.47426,4.1244 12.02371,4.1244 0.61955,0 0.31532,-1.6579 -0.94303,-5.13915 -3.61709,-10.00668 -5.18707,-14.53459 -5.34326,-15.41016 l -0.17305,-0.97014 h 5.33182 5.33182 l 1.52962,3.08681 c 1.37634,2.77749 3.31406,6.2348 6.53351,11.65719 0.60987,1.02718 1.10886,1.94315 1.10886,2.03548 0,0.0923 0.41701,0.82846 0.92669,1.63584 1.46723,2.32425 10.04573,17.30989 10.11936,17.67734 0.12041,0.60096 -0.58473,0.5451 -5.93077,-0.46977 z"
         id="path27"
         inkscape:connector-curvature="0" />
      <path
         style="fill:#731c9b;stroke-width:0.35277778"
         d="m 133.47598,154.24045 c -0.38805,-0.0855 -4.0393,-0.79379 -8.11389,-1.57397 -8.3113,-1.5914 -20.85457,-4.02517 -29.166342,-5.65914 l -5.530238,-1.08716 -0.756286,-2.1594 c -0.415957,-1.18767 -1.80152,-4.82044 -3.079029,-8.07282 -1.277508,-3.25238 -2.239399,-5.99676 -2.137535,-6.09863 0.101863,-0.10186 0.562908,-0.028 1.024544,0.16411 4.285856,1.78369 26.513986,9.76537 29.098466,10.44868 0.21433,0.0567 0.81304,1.42656 1.33046,3.0442 0.51742,1.61764 1.06264,3.13448 1.21159,3.37075 0.14895,0.23626 2.32014,1.15656 4.82487,2.04509 2.50474,0.88854 5.03853,1.84211 5.63067,2.11905 0.59214,0.27694 3.06099,1.2134 5.48633,2.08102 4.25738,1.52299 4.34879,1.57673 2.64584,1.55559 -0.97014,-0.012 -2.08139,-0.0919 -2.46945,-0.17737 z M 115.8371,121.61341 c -1.74625,-0.55809 -3.73063,-1.18182 -4.40973,-1.38606 -4.41524,-1.3279 -3.87552,-1.72028 2.37617,-1.72752 l 4.66923,-0.005 1.06849,2.11667 c 1.06612,2.11196 1.06672,2.11655 0.26967,2.06684 -0.43936,-0.0274 -2.22758,-0.50644 -3.97383,-1.06453 z"
         id="path25"
         inkscape:connector-curvature="0" />
      <path
         style="fill:#4c148c;stroke-width:0.35277778"
         d="m 131.53571,153.54077 c -0.48507,-0.0745 -2.3107,-0.43866 -4.05695,-0.80937 -1.74625,-0.3707 -4.92125,-0.99595 -7.05555,-1.38944 -2.13431,-0.3935 -9.70803,-1.85185 -16.83049,-3.2408 l -12.949937,-2.52535 -0.585905,-1.764 c -0.709136,-2.13501 -0.645258,-2.19634 2.840471,-2.72724 3.338557,-0.50849 8.273451,-1.36754 11.371401,-1.97951 1.39852,-0.27626 3.1342,-0.50229 3.85707,-0.50229 1.27178,0 5.19605,1.18457 5.97923,1.80488 0.21154,0.16755 0.76335,1.45718 1.22625,2.86585 1.11306,3.38717 1.76703,4.28876 3.57872,4.93375 0.83225,0.2963 2.86256,1.04654 4.5118,1.6672 1.64923,0.62066 4.34798,1.61541 5.99722,2.21053 2.64521,0.95454 4.32732,1.78162 3.33375,1.63919 -0.18433,-0.0264 -0.73202,-0.10895 -1.21708,-0.1834 z m -15.16945,-32.57449 c -1.64923,-0.55084 -3.51896,-1.10224 -4.15494,-1.22534 -2.18759,-0.42344 -0.73655,-0.89373 2.75748,-0.89373 h 3.49979 l 0.71273,1.39706 c 1.09363,2.1437 1.29044,2.09323 -2.81506,0.72201 z"
         id="path23"
         inkscape:connector-curvature="0" />
    </g>
  </g>
</svg>
